<?xml version="1.0" standalone="no"?><!DOCTYPE svg PUBLIC "-//W3C//DTD SVG 1.1//EN" "http://www.w3.org/Graphics/SVG/1.1/DTD/svg11.dtd"><svg t="1570775603553" class="icon" viewBox="0 0 1024 1024" version="1.1" xmlns="http://www.w3.org/2000/svg" p-id="3393" xmlns:xlink="http://www.w3.org/1999/xlink" width="200" height="200"><defs><style type="text/css"></style></defs><path d="M725.333333 85.333333H298.666667a128 128 0 0 0-128 128v597.333334a128 128 0 0 0 128 128h426.666666a128 128 0 0 0 128-128V213.333333a128 128 0 0 0-128-128z m42.666667 725.333334a42.666667 42.666667 0 0 1-42.666667 42.666666H298.666667a42.666667 42.666667 0 0 1-42.666667-42.666666V213.333333a42.666667 42.666667 0 0 1 42.666667-42.666666h426.666666a42.666667 42.666667 0 0 1 42.666667 42.666666z" p-id="3394" fill="#e6e6e6"></path><path d="M512 704m-64 0a64 64 0 1 0 128 0 64 64 0 1 0-128 0Z" p-id="3395" fill="#e6e6e6"></path><path d="M618.666667 256h-213.333334a42.666667 42.666667 0 0 0 0 85.333333h213.333334a42.666667 42.666667 0 0 0 0-85.333333z" p-id="3396" fill="#e6e6e6"></path></svg>