<?xml version="1.0" standalone="no"?><!DOCTYPE svg PUBLIC "-//W3C//DTD SVG 1.1//EN" "http://www.w3.org/Graphics/SVG/1.1/DTD/svg11.dtd"><svg t="1567314049548" class="icon" viewBox="0 0 1024 1024" version="1.1" xmlns="http://www.w3.org/2000/svg" p-id="1147" xmlns:xlink="http://www.w3.org/1999/xlink" width="200" height="200"><defs><style type="text/css"></style></defs><path d="M515.8 546.3c0-11 9-20 20-20H550c11 0 20 9 20 20v113c0 11-9 20-20 20h-14.2c-11 0-20-9-20-20v-113zM251.3 471.2c7.8-7.7 20.6-7.6 28.4 0.1l10.1 10.1c7.8 7.8 7.7 20.4-0.1 28.2l-91.8 90.2c-7.8 7.7-20.6 7.6-28.4-0.1l-10.1-10.1c-7.8-7.8-7.7-20.4 0.1-28.2l91.8-90.2zM820.6 462.2c-7.8-7.8-20.5-7.8-28.3 0l-10.1 10.1c-7.8 7.8-7.8 20.5 0 28.3l88 88.2c7.8 7.8 20.5 7.8 28.3 0l10.1-10.1c7.8-7.8 7.8-20.5 0-28.3l-88-88.2zM690.4 500.4c-5.5-9.6-17.7-12.9-27.2-7.4l-12.3 7.1c-9.5 5.5-12.9 17.8-7.4 27.4l67.8 118.7c5.5 9.6 17.7 12.9 27.2 7.4l12.3-7.1c9.5-5.5 12.9-17.8 7.4-27.4l-67.8-118.7zM392 513.9c5.5-9.5 17.8-12.8 27.3-7.3l12.3 7.1c9.5 5.5 12.8 17.8 7.3 27.3l-64.3 111.4c-5.5 9.5-17.8 12.8-27.3 7.3l-12.3-7.1c-9.5-5.5-12.8-17.8-7.3-27.3L392 513.9z" fill="#8a8a8a" p-id="1148"></path><path d="M880.5 371.8c-47.8 69.4-194 120-367.1 120s-319.3-50.6-367.1-120c0 0-13.9-23-35.8-8.8-22.1 14.3-8.1 36.4-8.1 36.4 61.2 86.1 221.9 147.7 411.1 147.7 189.4 0 350.3-61.8 411.3-148.1 0 0 11.2-17.8-8.3-32.6-22.1-16.8-36 5.4-36 5.4z" fill="#8a8a8a" p-id="1149"></path></svg>