<?xml version="1.0" standalone="no"?><!DOCTYPE svg PUBLIC "-//W3C//DTD SVG 1.1//EN" "http://www.w3.org/Graphics/SVG/1.1/DTD/svg11.dtd"><svg t="1569743274149" class="icon" viewBox="0 0 1024 1024" version="1.1" xmlns="http://www.w3.org/2000/svg" p-id="3737" xmlns:xlink="http://www.w3.org/1999/xlink" width="200" height="200"><defs><style type="text/css"></style></defs><path d="M512 170.666667a42.666667 42.666667 0 0 0-42.666667 42.666666v640a42.666667 42.666667 0 0 0 85.333334 0V213.333333a42.666667 42.666667 0 0 0-42.666667-42.666666zM810.666667 512a42.666667 42.666667 0 0 0-42.666667 42.666667v298.666666a42.666667 42.666667 0 0 0 85.333333 0v-298.666666a42.666667 42.666667 0 0 0-42.666666-42.666667zM213.333333 341.333333a42.666667 42.666667 0 0 0-42.666666 42.666667v469.333333a42.666667 42.666667 0 0 0 85.333333 0V384a42.666667 42.666667 0 0 0-42.666667-42.666667z" p-id="3738" fill="#e6e6e6"></path></svg>