<?xml version="1.0" standalone="no"?><!DOCTYPE svg PUBLIC "-//W3C//DTD SVG 1.1//EN" "http://www.w3.org/Graphics/SVG/1.1/DTD/svg11.dtd"><svg t="1570779080034" class="icon" viewBox="0 0 1024 1024" version="1.1" xmlns="http://www.w3.org/2000/svg" p-id="3393" xmlns:xlink="http://www.w3.org/1999/xlink" width="200" height="200"><defs><style type="text/css"></style></defs><path d="M552.106667 938.666667h-80.64a71.68 71.68 0 0 1-71.68-71.68v-46.506667a14.506667 14.506667 0 0 0-9.386667-12.373333 16.213333 16.213333 0 0 0-17.493333 0l-31.573334 34.133333a71.253333 71.253333 0 0 1-101.12 0L181.76 785.066667a70.826667 70.826667 0 0 1-21.333333-50.773334 73.386667 73.386667 0 0 1 21.333333-51.626666l31.573333-31.573334a14.506667 14.506667 0 0 0 0-15.786666c-2.56-6.4-6.826667-11.093333-12.8-11.093334H157.013333A72.106667 72.106667 0 0 1 85.333333 552.106667v-80.64a71.68 71.68 0 0 1 71.68-71.68h46.506667a14.506667 14.506667 0 0 0 12.373333-9.386667 16.213333 16.213333 0 0 0 0-17.493333L181.76 341.333333a71.253333 71.253333 0 0 1 0-101.12L238.933333 181.76a70.4 70.4 0 0 1 50.346667-21.333333 73.386667 73.386667 0 0 1 52.053333 21.333333l31.573334 31.573333a14.506667 14.506667 0 0 0 15.786666 0c6.4-2.56 11.093333-6.826667 11.093334-12.8V157.013333A72.106667 72.106667 0 0 1 471.893333 85.333333H554.666667a71.68 71.68 0 0 1 71.68 71.68v46.506667a14.506667 14.506667 0 0 0 9.386666 12.373333 16.213333 16.213333 0 0 0 17.493334 0l29.44-34.133333a71.253333 71.253333 0 0 1 101.12 0l58.453333 57.173333a71.253333 71.253333 0 0 1 21.333333 50.773334 69.546667 69.546667 0 0 1-21.333333 51.626666l-31.573333 31.573334a14.506667 14.506667 0 0 0 0 15.786666c2.56 6.4 6.826667 11.093333 12.8 11.093334h46.506666A72.106667 72.106667 0 0 1 938.666667 471.893333V554.666667a71.68 71.68 0 0 1-71.68 71.68h-46.506667a14.506667 14.506667 0 0 0-12.373333 9.386666 14.506667 14.506667 0 0 0 0 15.786667l32.853333 32.853333a71.253333 71.253333 0 0 1 0 101.12l-55.893333 56.746667a70.4 70.4 0 0 1-50.346667 21.333333 73.386667 73.386667 0 0 1-50.773333-21.333333l-32.853334-31.573333a14.506667 14.506667 0 0 0-15.786666 0c-6.4 2.56-11.093333 6.826667-11.093334 12.8v46.506666A72.106667 72.106667 0 0 1 552.106667 938.666667z m-66.986667-85.333334h53.76v-32.853333a99.413333 99.413333 0 0 1 62.293333-91.306667 100.693333 100.693333 0 0 1 110.506667 20.053334l23.04 23.04 37.546667-37.546667-23.04-23.466667a99.84 99.84 0 0 1-20.48-109.226666 99.413333 99.413333 0 0 1 91.306666-61.866667H853.333333v-55.04h-32.853333a99.413333 99.413333 0 0 1-91.306667-62.293333 100.693333 100.693333 0 0 1 20.053334-110.506667l23.04-23.04-37.546667-37.546667-23.466667 23.04a101.973333 101.973333 0 0 1-170.666666-71.253333V170.666667h-55.466667v32.853333a99.413333 99.413333 0 0 1-62.293333 91.306667 100.693333 100.693333 0 0 1-110.506667-20.053334l-23.04-23.04-37.546667 37.546667 23.04 23.466667a101.973333 101.973333 0 0 1-71.253333 170.666666H170.666667v53.76h32.853333a99.413333 99.413333 0 0 1 91.306667 62.293334 100.693333 100.693333 0 0 1-20.053334 110.506666l-23.04 23.04 37.546667 37.546667 23.466667-23.04a101.973333 101.973333 0 0 1 170.666666 71.253333z" p-id="3394"></path><path d="M512 661.333333a149.333333 149.333333 0 1 1 149.333333-149.333333 149.333333 149.333333 0 0 1-149.333333 149.333333z m0-213.333333a64 64 0 1 0 64 64 64 64 0 0 0-64-64z" p-id="3395"></path></svg>