<?xml version="1.0" standalone="no"?><!DOCTYPE svg PUBLIC "-//W3C//DTD SVG 1.1//EN" "http://www.w3.org/Graphics/SVG/1.1/DTD/svg11.dtd"><svg t="1567314905173" class="icon" viewBox="0 0 1024 1024" version="1.1" xmlns="http://www.w3.org/2000/svg" p-id="1588" xmlns:xlink="http://www.w3.org/1999/xlink" width="200" height="200"><defs><style type="text/css"></style></defs><path d="M512 409c-57.4 0-103.9 46.5-103.9 103.9 0 57.4 46.5 103.9 103.9 103.9 57.4 0 103.9-46.5 103.9-103.9C616 455.5 569.4 409 512 409z m0 153.5c-27.4 0-49.6-22.2-49.6-49.6 0-27.4 22.2-49.6 49.6-49.6 27.4 0 49.6 22.2 49.6 49.6 0.1 27.4-22.1 49.6-49.6 49.6z" fill="#2680F0" p-id="1589"></path><path d="M511.9 304.9C267.8 308.7 97.1 513 97.1 513S285 721 511.9 721 927 513.3 927 513.3 756 301.1 511.9 304.9z m0.3 361.1c-192.8 0-336.5-153.8-336.5-153.8S323.3 360 512.2 360C703.4 360 850 512.2 850 512.2S705 666 512.2 666z" fill="#2680F0" p-id="1590"></path></svg>